HIERARCHY
ROOT Hips
{
    OFFSET 0.000000 0.000000 0.000000
    CHANNELS 6 Xposition Yposition Zposition Zrotation Xrotation Yrotation
    JOINT Chest
    {
        OFFSET -0.000000 0.078597 0.000000
        CHANNELS 3 Zrotation Xrotation Yrotation
        JOINT Chest2
        {
            OFFSET -0.000000 0.230468 0.000000
            CHANNELS 3 Zrotation Xrotation Yrotation
            JOINT Neck
            {
                OFFSET -0.000000 0.249638 0.000000
                CHANNELS 3 Zrotation Xrotation Yrotation
                JOINT Head
                {
                    OFFSET -0.000000 0.103998 0.019170
                    CHANNELS 3 Zrotation Xrotation Yrotation
                    End Site
                    {
                        OFFSET -0.000000 0.191701 0.000000
                    }
                }
            }
            JOINT LeftCollar
            {
                OFFSET 0.038274 0.205938 -0.001496
                CHANNELS 3 Zrotation Xrotation Yrotation
                JOINT LeftShoulder
                {
                    OFFSET 0.132388 0.000000 0.000000
                    CHANNELS 3 Zrotation Xrotation Yrotation
                    JOINT LeftElbow
                    {
                        OFFSET 0.250301 0.000000 0.000000
                        CHANNELS 3 Zrotation Xrotation Yrotation
                        JOINT LeftWrist
                        {
                            OFFSET 0.285291 0.000000 0.000000
                            CHANNELS 3 Zrotation Xrotation Yrotation
                            End Site
                            {
                                OFFSET 0.000000 -0.143776 0.000000
                            }
                        }
                    }
                }
            }
            JOINT RightCollar
            {
                OFFSET -0.038406 0.205938 -0.001496
                CHANNELS 3 Zrotation Xrotation Yrotation
                JOINT RightShoulder
                {
                    OFFSET -0.132388 0.000000 0.000000
                    CHANNELS 3 Zrotation Xrotation Yrotation
                    JOINT RightElbow
                    {
                        OFFSET -0.250301 0.000000 0.000000
                        CHANNELS 3 Zrotation Xrotation Yrotation
                        JOINT RightWrist
                        {
                            OFFSET -0.285291 0.000000 0.000000
                            CHANNELS 3 Zrotation Xrotation Yrotation
                            End Site
                            {
                                OFFSET -0.000000 -0.143776 0.000000
                            }
                        }
                    }
                }
            }
        }
    }
    JOINT LeftHip
    {
        OFFSET 0.095851 0.000000 0.000000
        CHANNELS 3 Zrotation Xrotation Yrotation
        JOINT LeftKnee
        {
            OFFSET -0.000000 -0.406444 0.000000
            CHANNELS 3 Zrotation Xrotation Yrotation
            JOINT LeftAnkle
            {
                OFFSET -0.000000 -0.408443 0.000000
                CHANNELS 3 Zrotation Xrotation Yrotation
                JOINT LeftToe
                {
                    OFFSET -0.000000 -0.062303 0.143776
                    CHANNELS 3 Zrotation Xrotation Yrotation
                    End Site
                    {
                        OFFSET -0.000000 0.000000 0.038340
                    }
                }
            }
        }
    }
    JOINT RightHip
    {
        OFFSET -0.095851 0.000000 0.000000
        CHANNELS 3 Zrotation Xrotation Yrotation
        JOINT RightKnee
        {
            OFFSET -0.000000 -0.406444 0.000000
            CHANNELS 3 Zrotation Xrotation Yrotation
            JOINT RightAnkle
            {
                OFFSET -0.000000 -0.408443 0.000000
                CHANNELS 3 Zrotation Xrotation Yrotation
                JOINT RightToe
                {
                    OFFSET -0.000000 -0.062303 0.143776
                    CHANNELS 3 Zrotation Xrotation Yrotation
                    End Site
                    {
                        OFFSET -0.000000 0.000000 0.038340
                    }
                }
            }
        }
    }
}
MOTION
Frames:    9
Frame Time:    0.016667
0.015373    0.888694    0.108153    -0.333532    1.643330    -176.685226    0.847506    -1.580289    0.238755    -3.026152    1.336067    0.110854    2.201643    9.017371    -0.164930    -3.497759    0.566624    0.766437    11.500590    0.593185    -0.423687    -14.225631    -3.047701    -8.703336    -1.404123    -8.116133    1.733703    97.435020    -5.365975    8.444001    -10.059752    0.682338    0.403294    19.677700    -1.796487    1.059759    -2.741246    -6.459483    -0.998304    -92.746124    2.910473    -6.413443    5.435493    7.430083    -0.279087    -0.691711    -4.184783    1.156513    -5.583890    -4.300649    13.267107    0.000000    0.000000    0.000000    -5.650027    10.543881    3.473833    0.404679    -10.029261    2.004157    4.668995    -1.870904    -16.927992    0.000000    0.000000    0.000000    
0.015394    0.888688    0.108159    -0.334998    1.654499    -176.676270    0.861323    -1.553089    0.265932    -3.058629    1.312426    0.119518    2.250850    9.059158    -0.179614    -3.524613    0.526862    0.764727    11.525404    0.591116    -0.432701    -14.232187    -2.982224    -8.759409    -1.442588    -8.096134    1.814115    97.555389    -5.521369    8.438374    -10.053608    0.705331    0.396731    19.664436    -1.784162    0.989662    -2.769362    -6.446870    -1.017632    -92.394974    2.839810    -6.411942    5.434244    7.429935    -0.243930    -0.628709    -4.169955    0.931537    -5.537969    -4.336353    13.303959    0.000000    0.000000    0.000000    -5.649054    10.548289    3.476477    0.405286    -10.012294    2.003116    4.671716    -1.896977    -16.941545    0.000000    0.000000    0.000000    
0.015424    0.888674    0.108147    -0.340379    1.663608    -176.660034    0.864698    -1.543507    0.279515    -3.077891    1.317887    0.124600    2.256546    9.081300    -0.166624    -3.496550    0.500617    0.775236    11.546907    0.551392    -0.425390    -14.262257    -2.995338    -8.799638    -1.447893    -8.071906    1.838423    97.531372    -5.535939    8.413562    -10.067206    0.790099    0.321905    19.519894    -2.014963    0.978646    -2.453445    -6.396918    -0.903011    -93.096962    2.901608    -6.337690    5.438437    7.432747    -0.238397    -0.640546    -4.161785    0.924895    -5.528344    -4.340496    13.292159    0.000000    0.000000    0.000000    -5.649083    10.556553    3.481098    0.403700    -10.002644    1.986686    4.664229    -1.907144    -16.940699    0.000000    0.000000    0.000000    
0.015383    0.888666    0.108154    -0.341300    1.662715    -176.626831    0.883180    -1.547981    0.278143    -3.099654    1.320083    0.124449    2.220492    9.115767    -0.148747    -3.398687    0.490981    0.773655    11.544680    0.535559    -0.423465    -14.288406    -2.918834    -8.846675    -1.400462    -8.100769    1.848827    97.533875    -5.526114    8.442509    -10.093586    0.803180    0.287142    19.454460    -2.141805    0.906229    -2.301507    -6.348438    -0.806725    -93.115921    2.953485    -6.284203    5.437538    7.419319    -0.250234    -0.638392    -4.150025    0.894361    -5.681916    -4.323463    13.336086    0.000000    0.000000    0.000000    -5.652573    10.559980    3.513395    0.404975    -10.001302    1.905893    4.648133    -1.902748    -16.925070    0.000000    0.000000    0.000000    
0.015399    0.888675    0.108176    -0.339739    1.665516    -176.592041    0.903813    -1.545669    0.273925    -3.135036    1.317503    0.123162    2.226785    9.174764    -0.139545    -3.360533    0.455629    0.779501    11.560757    0.528042    -0.429232    -14.308105    -3.010458    -8.886978    -1.416387    -8.056463    1.851762    97.559410    -5.513827    8.398349    -10.132360    0.765157    0.265921    19.588036    -2.028856    0.936544    -2.478873    -6.421110    -0.940721    -93.014709    2.930031    -6.364228    5.445044    7.407180    -0.258710    -0.640458    -4.136435    0.868429    -5.699631    -4.329646    13.337932    0.000000    0.000000    0.000000    -5.639935    10.556629    3.491375    0.397054    -9.975077    1.919329    4.634576    -1.920054    -16.946070    0.000000    0.000000    0.000000    
0.015411    0.888681    0.108164    -0.341884    1.665308    -176.563843    0.912847    -1.558949    0.267317    -3.155466    1.333253    0.121886    2.207260    9.186297    -0.116522    -3.315616    0.513809    0.795025    11.556225    0.497928    -0.433651    -14.301905    -3.092222    -8.906372    -1.459214    -8.003146    1.816297    97.847725    -5.449304    8.354293    -10.134900    0.755250    0.243046    19.599661    -2.040562    0.936990    -2.486715    -6.448265    -0.955580    -93.083778    3.017365    -6.387633    5.451294    7.399640    -0.269992    -0.710220    -4.133667    1.056069    -5.598764    -4.329280    13.258501    0.000000    0.000000    0.000000    -5.634384    10.555264    3.483045    0.393205    -9.958076    1.938564    4.650393    -1.945247    -16.992527    0.000000    0.000000    0.000000    
0.015421    0.888690    0.108145    -0.343126    1.662268    -176.534042    0.936264    -1.579559    0.259400    -3.204445    1.346084    0.120052    2.278551    9.245419    -0.131438    -3.420558    0.495413    0.809415    11.585090    0.485482    -0.459413    -14.310190    -3.122209    -8.914426    -1.516156    -7.894805    1.765259    97.938934    -5.289715    8.238987    -10.114761    0.773019    0.196732    19.586384    -2.115984    0.978883    -2.467045    -6.430908    -0.949999    -93.065605    3.011310    -6.370638    5.451521    7.386439    -0.259443    -0.648478    -4.124116    0.830724    -5.640978    -4.427460    13.309786    0.000000    0.000000    0.000000    -5.630696    10.551208    3.485579    0.388300    -9.939252    1.906388    4.669692    -1.969541    -16.988605    0.000000    0.000000    0.000000    
0.015410    0.888691    0.108104    -0.344313    1.667575    -176.504196    0.913392    -1.587686    0.234964    -3.155919    1.351737    0.111007    2.214380    9.262832    -0.112472    -3.381746    0.537260    0.811710    11.555591    0.481016    -0.460549    -14.343047    -3.080760    -8.919872    -1.500158    -7.969532    1.723072    98.321404    -5.053768    8.315080    -10.153397    0.762062    0.204059    19.582726    -2.149710    0.977540    -2.446000    -6.401999    -0.950389    -93.053886    2.956072    -6.343345    5.456131    7.388502    -0.264887    -0.712573    -4.127149    1.021976    -5.459951    -4.343428    13.191965    0.000000    0.000000    0.000000    -5.627575    10.563308    3.474819    0.387169    -9.935847    1.895141    4.668899    -1.970059    -16.991808    0.000000    0.000000    0.000000    
0.015423    0.888665    0.108047    -0.345342    1.666482    -176.480560    0.901016    -1.609133    0.216588    -3.134487    1.363670    0.104971    2.151968    9.292727    -0.115867    -3.331755    0.553489    0.789073    11.562924    0.483078    -0.463124    -14.388548    -3.037611    -8.942511    -1.469680    -8.004982    1.733113    98.347610    -5.125468    8.357253    -10.140041    0.686537    0.232494    19.469048    -2.194044    0.845693    -2.284544    -6.331303    -0.774427    -93.023781    2.999603    -6.267474    5.477061    7.413363    -0.255205    -0.750662    -4.108959    0.219659    -5.348048    -4.493750    13.986900    0.000000    0.000000    0.000000    -5.624314    10.566730    3.465897    0.387889    -9.927354    1.889171    4.621369    -1.971678    -16.990133    0.000000    0.000000    0.000000    
